# xmcd
#
# Track frame offsets: 
#        150
#        15415
#        26987
#        40522
#        54912
#        69127
#        81032
#        96712
#        108835
#        120460
#        133047
#        148380
#
# Disc length: 2155 seconds
#
# Revision: 2
# Processed by: cddbd v1.5.2PL0 Copyright (c) Steve Scherf et al.
# Submitted via: ExactAudioCopy v0.99pb4
#
DISCID=9b08690c
DTITLE=Μαρινέλλα - Σταλιά σταλιά
DYEAR=1993
DGENRE=Greek Old Songs
TTITLE0=Σταλιά σταλιά
TTITLE1=Πίσω από τις καλαμιές
TTITLE2=Τώρα που ήρθε η στιγμή
TTITLE3=Οι άντρες δεν κλαίνε
TTITLE4=Ποιός είναι αυτός
TTITLE5=’μα δείτε το φεγγάρι
TTITLE6=’νοιξε πέτρα
TTITLE7=Πήρα τους δρόμους
TTITLE8=Ο Κολονακιώτης
TTITLE9=Κλαίω κάθε Κυριακή
TTITLE10=Έχω στην πόρτα τα κλειδιά
TTITLE11=Γλυκοχαράζει, ξύπνησε
EXTD=
EXTT0=
EXTT1=
EXTT2=
EXTT3=
EXTT4=
EXTT5=
EXTT6=
EXTT7=
EXTT8=
EXTT9=
EXTT10=
EXTT11=
PLAYORDER=
